<?xml version="1.0" encoding="UTF-8"?>
<svg version="1.1" xmlns="http://www.w3.org/2000/svg" width="1280" height="1280">
<path d="M0 0 C0.99 0.33 1.98 0.66 3 1 C5.52410429 1.8413681 7.36707614 2.72215796 9.625 4.0625 C12.26426698 5.57763475 14.05818943 6.52931031 17 7 C17 7.66 17 8.32 17 9 C18.98 9.66 20.96 10.32 23 11 C23 11.66 23 12.32 23 13 C23.70253906 13.08636719 24.40507812 13.17273438 25.12890625 13.26171875 C28.64963582 14.16704921 30.95470752 15.74335567 33.9375 17.8125 C34.93652344 18.49957031 35.93554688 19.18664062 36.96484375 19.89453125 C37.96644531 20.58933594 38.96804688 21.28414062 40 22 C40.94617188 22.62132812 41.89234375 23.24265625 42.8671875 23.8828125 C46.73125248 26.49418809 50.45926219 29.26202644 54.1875 32.0625 C54.89841797 32.59166016 55.60933594 33.12082031 56.34179688 33.66601562 C57.02693359 34.17970703 57.71207031 34.69339844 58.41796875 35.22265625 C59.03438232 35.68422119 59.6507959 36.14578613 60.28588867 36.62133789 C62 38 62 38 63.5559082 39.57592773 C65.0766882 41.19390056 65.0766882 41.19390056 67.6875 42.5625 C68.450625 43.036875 69.21375 43.51125 70 44 C70 44.66 70 45.32 70 46 C71.01126953 46.28810547 71.01126953 46.28810547 72.04296875 46.58203125 C76.18370227 48.56761417 79.04056539 51.50819853 82.3125 54.6875 C83.57818041 55.90104116 84.8451115 57.11327923 86.11328125 58.32421875 C86.75668457 58.93998779 87.40008789 59.55575684 88.06298828 60.19018555 C89.90246755 61.90887219 91.78540374 63.55246122 93.69921875 65.1875 C98.98498853 69.77287793 103.91245193 74.72640537 108.85742188 79.67211914 C110.51936188 81.33183598 112.1891961 82.98334457 113.859375 84.63476562 C114.91715357 85.68961614 115.97446325 86.7449371 117.03125 87.80078125 C117.53112427 88.29347 118.03099854 88.78615875 118.54602051 89.29377747 C122 92.77112877 122 92.77112877 122 95 C122.99 95.33 123.98 95.66 125 96 C126.56221756 97.73768402 128.05443479 99.53913218 129.5 101.375 C132.48160371 105.19392047 132.48160371 105.19392047 135.78125 108.7265625 C137 110 137 110 137 112 C137.99 112.33 138.98 112.66 140 113 C140.68486725 114.32407669 141.34870203 115.65909241 142 117 C142.598125 117.598125 143.19625 118.19625 143.8125 118.8125 C145.69477035 120.69477035 147.11563561 122.47200374 148.63671875 124.63671875 C149.30320435 125.58164185 149.30320435 125.58164185 149.9831543 126.5456543 C150.31871338 127.02558838 150.65427246 127.50552246 151 128 C151.54712646 127.88930176 152.09425293 127.77860352 152.65795898 127.66455078 C162.43906556 125.7015888 172.16757736 123.81678148 182.09667969 122.78955078 C186.40406703 122.33371666 190.66869894 121.75301597 194.9453125 121.0625 C247.81315597 112.62939976 303.48756527 113.72919482 356.22387695 122.40478516 C361.34147064 123.21145053 366.47267089 123.87106521 371.61010742 124.54003906 C375.90868122 125.12329531 380.17212192 125.8385333 384.4375 126.625 C385.5522168 126.82609375 385.5522168 126.82609375 386.68945312 127.03125 C388.46018765 127.35112462 390.23018709 127.67506495 392 128 C392.48210938 127.28972656 392.96421875 126.57945312 393.4609375 125.84765625 C394.09257813 124.92855469 394.72421875 124.00945312 395.375 123.0625 C396.00148438 122.14597656 396.62796875 121.22945312 397.2734375 120.28515625 C399 118 399 118 401 117 C401.7425 115.7315625 401.7425 115.7315625 402.5 114.4375 C402.995 113.633125 403.49 112.82875 404 112 C404.66 112 405.32 112 406 112 C406.268125 111.195625 406.53625 110.39125 406.8125 109.5625 C407.4003125 108.2940625 407.4003125 108.2940625 408 107 C409.485 106.505 409.485 106.505 411 106 C411.27585937 105.44828125 411.55171875 104.8965625 411.8359375 104.328125 C413.51960312 100.96079375 416.05806994 98.45858959 418.625 95.75 C419.21748535 95.12029297 419.8099707 94.49058594 420.42041016 93.84179688 C426.63493673 87.2930566 433.0009491 80.89283182 439.375 74.5 C440.14786346 73.72311829 440.14786346 73.72311829 440.93634033 72.93054199 C446.77818791 67.06569593 452.70112116 61.37729347 459 56 C460.30955933 54.83848918 461.61683797 53.67440212 462.921875 52.5078125 C464.19776666 51.38003861 465.4738077 50.25243369 466.75 49.125 C467.39582031 48.54492188 468.04164063 47.96484375 468.70703125 47.3671875 C469.33480469 46.81546875 469.96257813 46.26375 470.609375 45.6953125 C471.16592773 45.20047363 471.72248047 44.70563477 472.29589844 44.19580078 C474 43 474 43 476.14941406 42.51904297 C477.0654541 42.2621167 477.0654541 42.2621167 478 42 C478.33 41.01 478.66 40.02 479 39 C481.25 37.24609375 481.25 37.24609375 484 35.4375 C487.5978802 33.25818907 487.5978802 33.25818907 490 30 C490.763125 29.71125 491.52625 29.4225 492.3125 29.125 C495.05358208 28.18297325 495.05358208 28.18297325 496.78515625 26.171875 C499.35848468 23.64847005 502.03572892 21.97856265 505.125 20.125 C505.69468506 19.78057861 506.26437012 19.43615723 506.85131836 19.08129883 C509.53803382 17.45980426 512.23701536 15.85892694 514.93359375 14.25390625 C515.80113281 13.73699219 516.66867187 13.22007813 517.5625 12.6875 C518.70912109 12.01267578 518.70912109 12.01267578 519.87890625 11.32421875 C522.03553737 10.02384479 522.03553737 10.02384479 524.0625 8.42578125 C526.81137242 6.40292151 529.86224137 5.32116153 533 4 C533.763125 3.525625 534.52625 3.05125 535.3125 2.5625 C542.73521697 -1.75303312 551.21981779 -4.14108596 559.375 -6.6875 C560.34566406 -6.99494141 561.31632813 -7.30238281 562.31640625 -7.61914062 C567.44600061 -9.23584726 567.44600061 -9.23584726 570 -10 C570.6192334 -10.18933105 571.2384668 -10.37866211 571.87646484 -10.57373047 C589.31078802 -14.0734233 610.22075353 -12.48025141 625.2109375 -2.9609375 C627.91041929 -1.06917467 630.4615286 0.89948932 633 3 C633.88171875 3.68835938 634.7634375 4.37671875 635.671875 5.0859375 C638.20174758 7.1658663 639.99773474 9.41643192 642 12 C642.66 12.66 643.32 13.32 644 14 C657.24705423 27.24705423 665.49580415 45.13802201 673 62 C673.53496094 63.20011719 674.06992188 64.40023437 674.62109375 65.63671875 C679.40063393 76.78897918 683.16538004 88.35102382 686.94506836 99.87158203 C687.92302086 102.84077927 688.90547017 105.76809587 690.0859375 108.6640625 C691.13515529 111.34539686 691.78702931 114.00849356 692.4375 116.8125 C693.29427998 120.35645356 694.19892815 123.74361729 695.5625 127.125 C697.01470773 130.77049054 697.69944226 134.38318365 698.40234375 138.234375 C699.08149753 141.37712583 700.0171329 144.37646739 701 147.4375 C702.54055992 152.29706034 703.62293242 157.0205849 704.44921875 162.04296875 C705.08423743 165.45225345 705.93781358 168.7691314 706.8125 172.125 C710.97951187 188.31163134 713.8988747 204.82427183 716.65625 221.30102539 C717.35770315 225.4666659 718.10965933 229.59395506 719.05859375 233.7109375 C719.92458998 237.50243862 720.45818779 241.25460095 720.875 245.125 C721.64128119 251.8020189 722.74064741 258.38769673 723.9375 265 C725.87469806 275.81587401 727.28647836 286.65178785 728.58496094 297.56005859 C729.31512222 303.61180711 730.08236897 309.65877665 730.85620117 315.70507812 C731.12097258 317.78092448 731.38185057 319.8572362 731.64257812 321.93359375 C731.80435547 323.19945312 731.96613281 324.4653125 732.1328125 325.76953125 C732.27605957 326.89979736 732.41930664 328.03006348 732.56689453 329.19458008 C732.93080341 332.07204489 732.93080341 332.07204489 734 335 C734.66 335 735.32 335 736 335 C736.51046875 335.94746094 736.51046875 335.94746094 737.03125 336.9140625 C739.33618701 341.16838773 741.64994273 345.41387013 744.07421875 349.6015625 C744.42484375 350.20790527 744.77546875 350.81424805 745.13671875 351.43896484 C746.14384709 353.17476365 747.15580014 354.9077604 748.16796875 356.640625 C749.46353025 359.01628149 750.57610346 361.2555526 751.61328125 363.734375 C752.90687856 367.06112211 752.90687856 367.06112211 755 370 C755.78706604 372.16340141 756.44875375 374.349348 757.12109375 376.55078125 C757.98322243 379.10723407 757.98322243 379.10723407 759.4140625 381.8203125 C761.16102422 385.32284166 762.57932746 388.8975758 763.9375 392.5625 C764.19692383 393.25778809 764.45634766 393.95307617 764.72363281 394.66943359 C766.72445913 400.10042499 768.49714674 405.58246927 770.140625 411.1328125 C770.72595017 413.08567013 771.35423021 415.02604612 772.01953125 416.953125 C773.0507567 420.15772999 773.7664916 423.32682312 774.4375 426.625 C775.11451942 429.94432948 775.79308453 433.23141399 776.67382812 436.50292969 C778.90069496 444.80645242 780.17138044 453.12100742 781.30761719 461.62695312 C781.62462399 463.99718858 781.95211743 466.365796 782.28125 468.734375 C784.39515396 484.10068379 785.23864206 499.17990687 785.25 514.6875 C785.25100708 515.64297729 785.25201416 516.59845459 785.25305176 517.58288574 C785.24235076 532.62031226 784.48013016 547.14518896 782 562 C781.68291788 564.05197901 781.36652679 566.1040649 781.05078125 568.15625 C779.56997798 577.45962172 777.88570435 586.48332123 774.8671875 595.421875 C774.11021852 597.67232331 773.51923358 599.8737223 773 602.1875 C771.95364365 606.17673357 770.5181567 609.81663794 768.9375 613.6171875 C767.87855804 616.18067638 767.87855804 616.18067638 767 619.6875 C766.18271937 622.39474208 765.41103884 624.18655961 764 626.5625 C761.9445573 629.8267351 761.9445573 629.8267351 761 633 C760.16936536 635.49190392 759.31256781 637.32823935 758 639.5625 C756.02468671 642.75908629 756.02468671 642.75908629 755.04296875 645.42578125 C753.22554676 649.91147822 750.54506594 653.89637304 748 658 C747.15695312 659.37478516 747.15695312 659.37478516 746.296875 660.77734375 C742.96574959 666.126651 739.43041963 671.15189815 735.4921875 676.0703125 C733.88116301 678.07113201 733.88116301 678.07113201 732.375 680.75 C730.62252696 683.61768315 728.38853947 685.63170239 726 688 C724.10394317 690.02246062 722.24208366 692.07580701 720.375 694.125 C706.56015049 709.1771289 706.56015049 709.1771289 700.24609375 714.18359375 C697.92552749 715.80372959 697.92552749 715.80372959 697 718 C695.33720673 719.0064275 693.67016516 720.00585407 692 721 C691.2265625 721.804375 691.2265625 721.804375 690.4375 722.625 C689 724 689 724 686.875 724.5 C686.25625 724.665 685.6375 724.83 685 725 C684.67 725.99 684.34 726.98 684 728 C682.57299805 729.2109375 682.57299805 729.2109375 680.76171875 730.375 C680.10623047 730.80296875 679.45074219 731.2309375 678.77539062 731.671875 C678.08638672 732.11015625 677.39738281 732.5484375 676.6875 733 C675.33661091 733.8740291 673.98633317 734.74900393 672.63671875 735.625 C672.00040527 736.03363281 671.3640918 736.44226563 670.70849609 736.86328125 C668.86274207 738.05774897 668.86274207 738.05774897 666.70703125 739.8125 C665 741 665 741 662 741 C662 741.66 662 742.32 662 743 C661.443125 743.30292969 660.88625 743.60585938 660.3125 743.91796875 C656.61242769 745.94925845 652.96482749 747.99251279 649.4375 750.3125 C644.78876291 753.27419541 639.84553328 755.64312353 634.89819336 758.05786133 C631.68223625 759.63259849 628.53000334 761.24506603 625.44140625 763.05859375 C622.02803286 764.98418577 618.62694844 766.5216022 615 768 C613.90042969 768.44859375 612.80085937 768.8971875 611.66796875 769.359375 C608.49858377 770.62570615 605.32796749 771.88872831 602.15478516 773.14550781 C600.69017059 773.72630896 599.22632926 774.30906297 597.76318359 774.89355469 C589.14972555 778.3315681 580.58833677 781.557579 571.6796875 784.16796875 C568.8090783 785.00441906 568.8090783 785.00441906 565.4375 786.5625 C561.55068627 788.18789483 557.71985787 789.14315663 553.62890625 790.12109375 C549.2993578 791.16969268 544.9941901 792.29928495 540.6875 793.4375 C539.8629834 793.65390137 539.0384668 793.87030273 538.18896484 794.09326172 C534.55921714 795.04800747 530.93703825 796.01773099 527.32421875 797.03515625 C508.15824071 802.39642077 488.46250172 805.55075314 468.81445312 808.55908203 C466.30382548 808.95240208 463.80022733 809.37174905 461.296875 809.80859375 C448.32397579 812.04475888 435.26064512 813.24463515 422.15733337 814.42842102 C417.48586419 814.85353339 412.82102157 815.32602433 408.15625 815.8203125 C394.50346782 817.24195342 380.93296865 818.2437066 367.21289062 818.57763672 C366.44528129 818.59766243 365.67767195 818.61768814 364.88680172 818.63832068 C348.13820285 819.07219956 331.39355501 819.14855689 314.64020348 819.1343255 C310.56128259 819.13170933 306.48236341 819.13416414 302.40344238 819.13571167 C295.56664618 819.13750739 288.72986093 819.13519677 281.89306641 819.13037109 C274.10182392 819.12493361 266.31060764 819.12669814 258.51936579 819.1321975 C251.70794028 819.1368042 244.89652245 819.13734306 238.08509588 819.13475883 C234.07036253 819.13323673 230.05564128 819.13288494 226.04090881 819.13629532 C209.18181197 819.14862435 192.33757533 819.00616468 175.48413086 818.54589844 C174.73164629 818.52591931 173.97916172 818.50594018 173.20387459 818.48535562 C161.43502601 818.1655776 149.76494631 817.42613074 138.0625 816.125 C136.34086105 815.94349937 134.61909617 815.76318985 132.8972168 815.58398438 C129.50432906 815.2293516 126.112285 814.86787498 122.72070312 814.50097656 C118.3949313 814.03651279 114.06609726 813.61558496 109.734375 813.2109375 C96.9350298 811.99692977 84.38132721 810.35637773 71.76171875 807.89453125 C67.83190347 807.1329511 63.91633453 806.57828495 59.9375 806.125 C52.36106992 805.17794624 44.91521699 803.65726876 37.4375 802.125 C35.6265686 801.75785889 35.6265686 801.75785889 33.77905273 801.38330078 C26.45481533 799.85449615 19.28827385 798.01308151 12.10961914 795.90576172 C8.42524709 794.83258748 4.73009157 793.90036693 1 793 C-9.3144622 790.46260454 -19.47960085 787.67184837 -29.4296875 783.9296875 C-31.89270878 783.03880746 -34.35753163 782.28293307 -36.875 781.5625 C-44.13766433 779.43938886 -51.34228294 776.84036078 -58.10546875 773.4375 C-60.59575124 772.20076052 -62.91015757 771.29712617 -65.5625 770.5 C-69.07150618 769.37501961 -71.84799408 767.92195483 -75 766 C-76.49295561 765.39886664 -77.99413548 764.81802273 -79.5 764.25 C-85.9718299 761.73264142 -91.94227126 758.37305351 -98 755 C-98.7940625 754.56558594 -99.588125 754.13117187 -100.40625 753.68359375 C-102.61369059 752.47190082 -104.80863896 751.2405332 -107 750 C-107.94617188 749.46632813 -108.89234375 748.93265625 -109.8671875 748.3828125 C-116.51181451 744.57863673 -122.79928556 740.48524301 -129 736 C-130.795828 734.71224985 -132.59321166 733.42669906 -134.39111328 732.1418457 C-135.59633005 731.27995901 -136.80049863 730.41660395 -138.00341797 729.55151367 C-140.73462959 727.59196153 -143.46450712 725.70225314 -146.296875 723.88671875 C-149 722 -149 722 -151 719 C-151.639375 718.690625 -152.27875 718.38125 -152.9375 718.0625 C-155.41842169 716.78444943 -156.35636508 715.21533403 -158 713 C-158.99 712.67 -159.98 712.34 -161 712 C-162.36639342 710.3603279 -163.6949419 708.68889872 -165 707 C-166.64302953 705.31002677 -168.31471312 703.64783606 -170 702 C-172.28595007 699.71821377 -174.56758428 697.43219082 -176.84765625 695.14453125 C-178.09477734 693.90193692 -179.3489511 692.66618413 -180.62109375 691.44921875 C-183.06478989 689.10704114 -184.53665627 687.0242437 -186 684 C-186.57234375 683.43925781 -187.1446875 682.87851562 -187.734375 682.30078125 C-190.50649044 679.48565023 -192.85097427 676.42498202 -195.1875 673.25 C-195.66582275 672.60039307 -196.14414551 671.95078613 -196.63696289 671.28149414 C-200.94272672 665.30654181 -204.5422509 659.03698209 -208.02734375 652.55859375 C-209.82468503 649.23364591 -211.8922454 646.13782769 -214 643 C-214.86807583 641.43544472 -215.70413129 639.8524924 -216.5 638.25 C-216.8815625 637.49203125 -217.263125 636.7340625 -217.65625 635.953125 C-225.09071725 619.61458652 -231.06284718 602.50278828 -235 585 C-235.48146484 583.24236328 -235.48146484 583.24236328 -235.97265625 581.44921875 C-237.52272005 575.29053613 -238.2211959 568.97328919 -239.0625 562.6875 C-239.32256836 560.80514648 -239.32256836 560.80514648 -239.58789062 558.88476562 C-243.59626539 529.41322854 -243.27165137 499.5212598 -239.8125 470 C-239.71434998 469.13391113 -239.61619995 468.26782227 -239.51507568 467.37548828 C-238.22125628 456.22038653 -236.08865753 445.49656642 -233.19018555 434.6484375 C-232.09393468 430.51660198 -231.23924583 426.36107955 -230.4490509 422.16079712 C-229.88579372 419.45044849 -229.01893585 416.94622093 -228 414.375 C-226.54651228 410.68450384 -225.51677743 407.03605505 -224.58496094 403.18164062 C-223.52230059 399.21839653 -222.06293014 395.40214535 -220.625 391.5625 C-220.33367187 390.76779297 -220.04234375 389.97308594 -219.7421875 389.15429688 C-216.70022114 380.95566387 -213.11912439 373.05695574 -209.1875 365.25 C-208.84420654 364.56607178 -208.50091309 363.88214355 -208.1472168 363.17749023 C-203.34181629 353.65401995 -198.2167561 344.30361571 -193 335 C-192.34 335 -191.68 335 -191 335 C-190.17641866 329.65214466 -189.35889248 324.30340671 -188.54638672 318.95385742 C-188.27060748 317.14339706 -187.993323 315.33316519 -187.71435547 313.52319336 C-186.12327088 303.19263153 -184.7232679 292.88467533 -183.69265747 282.4826355 C-183.09025879 276.52538836 -182.17926054 270.68422284 -181 264.8125 C-179.76712671 258.38777874 -178.66764864 252.00168541 -177.9375 245.5 C-177.23089165 239.35938586 -176.08300628 233.44196794 -174.71484375 227.41796875 C-174.00270109 224.01291507 -173.50695035 220.63690672 -173.0625 217.1875 C-172.25293489 211.14949352 -170.9712618 205.33680908 -169.52490234 199.42919922 C-168.42574759 194.90866081 -167.49218699 190.39722899 -166.6875 185.8125 C-163.16063121 166.09664187 -158.1097417 146.55188394 -152.64794922 127.29492188 C-152.04609725 125.16326833 -151.45952497 123.02814262 -150.87890625 120.890625 C-149.20533541 114.82148874 -147.30562291 109.02966072 -144.8671875 103.2265625 C-144.05939652 101.15250458 -143.49215668 99.16721625 -143 97 C-142.08405712 92.97147245 -140.57155334 89.29054475 -138.9921875 85.48046875 C-138.11743559 83.29358896 -137.38142796 81.1238406 -136.6875 78.875 C-133.20214273 68.21390718 -128.06032774 58.01799709 -123.3125 47.875 C-122.94431152 47.08174316 -122.57612305 46.28848633 -122.19677734 45.47119141 C-120.5751657 42.04161797 -118.93452907 38.76939251 -116.79296875 35.6328125 C-114.87121869 33.06802359 -114.87121869 33.06802359 -114 30 C-113.34 30 -112.68 30 -112 30 C-111.6596875 28.9790625 -111.6596875 28.9790625 -111.3125 27.9375 C-109.68773854 24.3011291 -107.67196743 20.97170737 -105 18 C-104.34 18 -103.68 18 -103 18 C-102.6596875 16.9171875 -102.6596875 16.9171875 -102.3125 15.8125 C-99.88735 10.61575 -95.41592627 7.48625758 -91 4 C-90.29810547 3.28650391 -90.29810547 3.28650391 -89.58203125 2.55859375 C-67.32052789 -19.37310956 -24.77660402 -14.92335995 0 0 Z " fill="#505050" transform="translate(369,106)"/>
<path d="M0 0 C1.17923035 -0.00637985 2.35846069 -0.0127597 3.57342529 -0.01933289 C4.86178284 -0.02044571 6.15014038 -0.02155853 7.47753906 -0.02270508 C8.81260209 -0.02591982 10.14766476 -0.02928406 11.48272705 -0.03279114 C14.29399427 -0.03879611 17.10523072 -0.04063014 19.91650391 -0.04003906 C23.48343021 -0.0399385 27.05015267 -0.05347332 30.6170311 -0.07081127 C33.38322818 -0.08205962 36.14937842 -0.08395423 38.91559601 -0.08342934 C40.85892724 -0.08515524 42.80224383 -0.09593279 44.74554443 -0.10697937 C57.99912918 -0.07347527 71.50308424 0.425186 81.49316406 10.14526367 C87.36546343 18.3465203 88.26570145 25.06868899 87.49316406 35.14526367 C85.5598975 42.87832994 79.27822823 47.80979855 72.73925781 51.84448242 C71.99804688 52.27374023 71.25683594 52.70299805 70.49316406 53.14526367 C71.00363281 53.73049805 71.51410156 54.31573242 72.04003906 54.91870117 C77.65862894 61.553419 82.52146161 68.48039079 87.2421875 75.77368164 C92.5035473 84.63386436 92.5035473 84.63386436 100.80566406 90.02026367 C102.63097656 90.57713867 102.63097656 90.57713867 104.49316406 91.14526367 C104.49316406 94.44526367 104.49316406 97.74526367 104.49316406 101.14526367 C100.06443046 101.39391849 95.6394594 101.5745311 91.20581055 101.69458008 C89.70085874 101.74464286 88.196388 101.8127259 86.69311523 101.8996582 C74.35967282 102.59461518 74.35967282 102.59461518 70.171875 99.34277344 C68.2776293 96.70917295 66.89636807 94.06960378 65.49316406 91.14526367 C64.2391944 88.97724284 62.97575884 86.8146761 61.70410156 84.65698242 C59.76505245 81.22407405 57.84069336 77.78342122 55.92285156 74.33862305 C55.29378906 73.22680664 54.66472656 72.11499023 54.01660156 70.96948242 C53.4589209 69.97005615 52.90124023 68.97062988 52.32666016 67.94091797 C49.97536332 64.35573819 47.3811628 61.08926304 43.49316406 59.14526367 C41.95647541 58.92058537 40.41348352 58.73729562 38.86816406 58.58276367 C38.05089844 58.49897461 37.23363281 58.41518555 36.39160156 58.32885742 C35.451875 58.23797852 35.451875 58.23797852 34.49316406 58.14526367 C34.6032587 62.37495629 34.73383944 66.60377665 34.86816406 70.83276367 C34.89910156 72.03094727 34.93003906 73.22913086 34.96191406 74.46362305 C35.01992187 76.19902344 35.01992187 76.19902344 35.07910156 77.96948242 C35.11052246 79.03255615 35.14194336 80.09562988 35.17431641 81.19091797 C35.50031112 84.21148615 36.12644055 86.4388354 37.49316406 89.14526367 C39.789464 90.29341364 41.57014492 90.45296176 44.11816406 90.70776367 C45.56191406 90.85213867 47.00566406 90.99651367 48.49316406 91.14526367 C48.49316406 94.44526367 48.49316406 97.74526367 48.49316406 101.14526367 C30.34316406 101.14526367 12.19316406 101.14526367 -6.50683594 101.14526367 C-6.50683594 92.14526367 -6.50683594 92.14526367 -5.50683594 91.14526367 C-2.96404074 90.65195243 -0.41276904 90.2454833 2.14550781 89.84057617 C4.84298929 89.31415323 4.84298929 89.31415323 6.49316406 86.14526367 C6.80568586 83.03812278 6.80568586 83.03812278 6.76782227 79.44238281 C6.7729332 78.76561996 6.77804413 78.08885712 6.78330994 77.3915863 C6.79720997 75.15444088 6.7962489 72.9176034 6.79394531 70.68041992 C6.79783208 69.12487168 6.80216671 67.56932449 6.80693054 66.01377869 C6.81439366 62.7529659 6.81410088 59.49226139 6.80883789 56.23144531 C6.80304362 52.05377553 6.81997244 47.87654914 6.84318256 43.69895267 C6.85791828 40.48617463 6.85879184 37.27350341 6.85567284 34.06069756 C6.85618615 32.52052368 6.86142583 30.98034383 6.87148476 29.44020271 C6.88382892 27.28568891 6.87707053 25.13203915 6.86547852 22.97753906 C6.86610794 21.75192764 6.86673737 20.52631622 6.86738586 19.26356506 C6.46319349 15.89552597 5.87456962 14.51642557 3.49316406 12.14526367 C1.01022216 11.23965221 1.01022216 11.23965221 -1.69433594 10.89526367 C-2.59539062 10.74573242 -3.49644531 10.59620117 -4.42480469 10.44213867 C-5.111875 10.34416992 -5.79894531 10.24620117 -6.50683594 10.14526367 C-6.5337281 8.66619475 -6.55318215 7.18698884 -6.56933594 5.70776367 C-6.5809375 4.88405273 -6.59253906 4.0603418 -6.60449219 3.21166992 C-6.40553627 -0.99823729 -3.57215206 0.01306464 0 0 Z M34.49316406 11.14526367 C34.49316406 23.02526367 34.49316406 34.90526367 34.49316406 47.14526367 C45.09770499 47.7709195 45.09770499 47.7709195 54.28613281 43.55932617 C59.26726286 37.951118 59.78835096 33.4949791 59.70800781 26.09448242 C59.34978871 21.17711117 57.69696364 18.45849958 54.43066406 14.89526367 C48.17536828 11.16870448 41.65201809 11.14526367 34.49316406 11.14526367 Z " fill="#3F3F3F" transform="translate(96.5068359375,1037.854736328125)"/>
<path d="M0 0 C1.90726344 1.90726344 3.40519339 3.80714091 5 6 C5.74443359 5.29423828 5.74443359 5.29423828 6.50390625 4.57421875 C14.6167089 -2.86123415 21.9822063 -5.22244952 33 -5 C40.292801 -3.79119326 46.18880362 -1.04546274 51.25 4.4375 C57.35981412 16.87533589 55.62750165 33.47649298 56 47 C58.97 47.99 61.94 48.98 65 50 C65 52.97 65 55.94 65 59 C50.48 59 35.96 59 21 59 C21 56.03 21 53.06 21 50 C22.134375 49.54625 23.26875 49.0925 24.4375 48.625 C28.04721692 47.42904194 28.04721692 47.42904194 29 45 C29.27266786 40.60963432 29.23170416 36.21036241 29.25 31.8125 C29.270625 30.59240234 29.29125 29.37230469 29.3125 28.11523438 C29.34041508 21.69127765 29.334553 16.5926605 26 11 C22.89046621 9.4452331 20.43733239 9.71355563 17 10 C12.64484069 12.30567257 9.53987164 14.77940991 7 19 C6.45484039 22.82217884 6.53319917 26.584281 6.625 30.4375 C6.62628906 31.46166016 6.62757812 32.48582031 6.62890625 33.54101562 C6.66999683 40.99977726 6.66999683 40.99977726 9 48 C12.52451159 49.46022435 12.52451159 49.46022435 16 50 C16 52.97 16 55.94 16 59 C1.81 59 -12.38 59 -27 59 C-27 56.03 -27 53.06 -27 50 C-25.865625 49.566875 -24.73125 49.13375 -23.5625 48.6875 C-21.7990625 47.8521875 -21.7990625 47.8521875 -20 47 C-18.30347191 41.91041573 -18.77321667 36.57822643 -18.75 31.25 C-18.729375 30.08210938 -18.70875 28.91421875 -18.6875 27.7109375 C-18.65898019 21.42231919 -18.70365001 16.45763607 -22 11 C-25.78990417 9.44958466 -27.66925691 9.89555481 -31.5625 11.125 C-35.07060911 13.03851406 -37.34845403 15.03650745 -40 18 C-40.495 18.495 -40.495 18.495 -41 19 C-41.25384564 23.09779385 -41.18523095 27.20777951 -41.1875 31.3125 C-41.20586914 33.0440332 -41.20586914 33.0440332 -41.22460938 34.81054688 C-41.22654297 35.92107422 -41.22847656 37.03160156 -41.23046875 38.17578125 C-41.23457764 39.19583252 -41.23868652 40.21588379 -41.24291992 41.2668457 C-40.99347243 44.07344337 -40.59275809 45.68808052 -39 48 C-35.95800528 49.29231642 -35.95800528 49.29231642 -33 50 C-33 52.97 -33 55.94 -33 59 C-47.85 59 -62.7 59 -78 59 C-78 56.03 -78 53.06 -78 50 C-75.72135417 49.64192708 -73.44270833 49.28385417 -71.1640625 48.92578125 C-68.80075337 48.18804118 -68.80075337 48.18804118 -67.88134766 45.80566406 C-66.93057515 42.77899437 -66.74155044 40.35078023 -66.734375 37.18359375 C-66.73179687 36.08982422 -66.72921875 34.99605469 -66.7265625 33.86914062 C-66.73429688 32.73669922 -66.74203125 31.60425781 -66.75 30.4375 C-66.74226562 29.30119141 -66.73453125 28.16488281 -66.7265625 26.99414062 C-66.72914063 25.90166016 -66.73171875 24.80917969 -66.734375 23.68359375 C-66.73663086 22.68900146 -66.73888672 21.69440918 -66.74121094 20.66967773 C-67.0102683 17.89407184 -67.40045521 16.27764076 -69 14 C-72.54588501 12.70079254 -72.54588501 12.70079254 -76 12 C-76 8.7 -76 5.4 -76 2 C-71.94394673 1.28359826 -67.88713928 0.57164962 -63.82958984 -0.13623047 C-62.45014491 -0.37752807 -61.0709099 -0.62002897 -59.69189453 -0.86376953 C-57.70661496 -1.21444977 -55.72050292 -1.56040683 -53.734375 -1.90625 C-52.54038086 -2.11572266 -51.34638672 -2.32519531 -50.11621094 -2.54101562 C-47 -3 -47 -3 -43 -3 C-41.64560332 -0.29120665 -41.93498549 2.00933268 -42 5 C-41.5153125 4.60167969 -41.030625 4.20335937 -40.53125 3.79296875 C-29.29826132 -5.08541269 -12.49057624 -9.25975744 0 0 Z " fill="#3F3F3F" transform="translate(1042,1080)"/>
<path d="M0 0 C0.33 21.45 0.66 42.9 1 65 C10.79488577 59.08068105 10.79488577 59.08068105 18 51 C16.35 50.67 14.7 50.34 13 50 C13 47.03 13 44.06 13 41 C24.22 41 35.44 41 47 41 C47 43.97 47 46.94 47 50 C46.0821875 50.29132813 45.164375 50.58265625 44.21875 50.8828125 C36.9568867 53.30851894 30.76257087 55.7922108 25 61 C28.86413431 67.19320156 33.20406957 73.0115332 37.625 78.8125 C38.18727295 79.55363037 38.7495459 80.29476074 39.32885742 81.05834961 C44.71434206 88.09428103 44.71434206 88.09428103 52 93 C52 95.97 52 98.94 52 102 C39.13 102 26.26 102 13 102 C13 99.03 13 96.06 13 93 C14.98 92.505 14.98 92.505 17 92 C16.37351562 91.09636719 15.74703125 90.19273438 15.1015625 89.26171875 C14.27602781 88.0703221 13.45050774 86.87891532 12.625 85.6875 C12.2125 85.09259766 11.8 84.49769531 11.375 83.88476562 C9.56307623 81.26916598 7.76504945 78.64757418 6 76 C3.525 76.99 3.525 76.99 1 78 C0.97303635 79.79158489 0.95362083 81.58328473 0.9375 83.375 C0.92589844 84.37273437 0.91429687 85.37046875 0.90234375 86.3984375 C0.81993398 88.98432453 0.81993398 88.98432453 2 91 C3.97888961 91.72693904 5.97954558 92.39816251 8 93 C8 95.97 8 98.94 8 102 C-6.19 102 -20.38 102 -35 102 C-35 99.03 -35 96.06 -35 93 C-32.94921875 92.28385417 -30.8984375 91.56770833 -28.84765625 90.8515625 C-26.81317884 90.14728587 -26.81317884 90.14728587 -26 88 C-25.89785992 85.83072083 -25.86156472 83.65824399 -25.85473633 81.48657227 C-25.85137772 80.81810272 -25.8480191 80.14963318 -25.84455872 79.46090698 C-25.83504182 77.24605462 -25.83310526 75.0312778 -25.83203125 72.81640625 C-25.82881926 71.27945423 -25.82545524 69.74250252 -25.82194519 68.20555115 C-25.81595213 64.98167207 -25.81410548 61.75781981 -25.81469727 58.53393555 C-25.81479892 54.39995904 -25.80114446 50.26615417 -25.78392506 46.13221836 C-25.77281469 42.9572419 -25.77077776 39.78230707 -25.77130699 36.60731316 C-25.7701255 35.08306219 -25.7656943 33.5588102 -25.75797462 32.03457832 C-25.74819369 29.90387014 -25.75104501 27.77353629 -25.75708008 25.64282227 C-25.75565506 24.42973892 -25.75423004 23.21665558 -25.75276184 21.96681213 C-25.77467226 18.81399953 -25.77467226 18.81399953 -28 16 C-31.56769552 15.26393501 -31.56769552 15.26393501 -35 15 C-35 11.7 -35 8.4 -35 5 C-28.81496842 3.57459192 -22.64359679 2.36584272 -16.375 1.375 C-15.56804688 1.2409375 -14.76109375 1.106875 -13.9296875 0.96875 C-13.135625 0.84242187 -12.3415625 0.71609375 -11.5234375 0.5859375 C-10.82138184 0.4729834 -10.11932617 0.3600293 -9.39599609 0.24365234 C-6.27901964 -0.07331755 -3.13305157 0 0 0 Z " fill="#3F3F3F" transform="translate(676,1037)"/>
<path d="M0 0 C33 0 66 0 100 0 C100 10.23 100 20.46 100 31 C97.03 31 94.06 31 91 31 C90.68546875 30.19175781 90.3709375 29.38351562 90.046875 28.55078125 C89.61890625 27.48214844 89.1909375 26.41351562 88.75 25.3125 C88.33234375 24.25675781 87.9146875 23.20101563 87.484375 22.11328125 C85.39356175 17.72807556 83.55451452 14.64771439 79 12.75 C75.6166626 11.96116753 72.2083783 11.72566025 68.75 11.453125 C67.67234375 11.36708008 66.5946875 11.28103516 65.484375 11.19238281 C64.66453125 11.12889648 63.8446875 11.06541016 63 11 C63.03803367 20.70993291 63.09736118 30.41947955 63.18390274 40.12910843 C63.22341776 44.63768219 63.25558636 49.14605946 63.27099609 53.65478516 C63.28613637 58.00573036 63.32053453 62.35613553 63.36830902 66.70684052 C63.38315008 68.36697446 63.39104258 70.02718549 63.39188385 71.68738556 C63.39424719 74.01255413 63.42127256 76.33622255 63.45410156 78.66113281 C63.44655602 79.69151924 63.44655602 79.69151924 63.43885803 80.74272156 C63.51180736 84.08041072 63.80915324 85.75514245 65.88665771 88.42059326 C68.31894877 90.23836642 69.74515447 90.57324438 72.75 90.75 C74.1525 90.8325 75.555 90.915 77 91 C77 94.3 77 97.6 77 101 C58.85 101 40.7 101 22 101 C22 97.7 22 94.4 22 91 C24.24609375 90.83723958 26.4921875 90.67447917 28.73828125 90.51171875 C31.41986625 89.90500435 32.3353373 89.15637846 34 87 C35.17054735 83.48835795 35.16066226 80.66503216 35.20532227 76.95825195 C35.21522186 76.24580322 35.22512146 75.53335449 35.23532104 74.79931641 C35.266895 72.44567176 35.29167719 70.09200694 35.31640625 67.73828125 C35.33697933 66.10588559 35.35797589 64.47349521 35.37937927 62.84111023 C35.43456344 58.54544354 35.48398883 54.24972906 35.53222656 49.95397949 C35.58246827 45.57018788 35.6381404 41.18646562 35.69335938 36.80273438 C35.80089625 28.20188157 35.90235114 19.60097072 36 11 C33.09988447 11.20177335 30.20829161 11.43520667 27.3125 11.6875 C26.08756836 11.76774414 26.08756836 11.76774414 24.83789062 11.84960938 C20.48154971 12.25526055 18.47580453 12.61257019 14.98730469 15.453125 C13.24756476 17.68272781 12.1285904 19.34279976 11.25 22 C11.02183594 22.680625 10.79367187 23.36125 10.55859375 24.0625 C9.89712495 26.35682535 9.36867667 28.64046933 9 31 C6.03 31 3.06 31 0 31 C0 20.77 0 10.54 0 0 Z " fill="#3F3F3F" transform="translate(467,1038)"/>
<path d="M0 0 C6.28387654 5.77090702 7.45867564 11.901633 7.92797852 20.22241211 C7.96463623 21.48448486 8.00129395 22.74655762 8.0390625 24.046875 C8.0598436 24.72504776 8.08062469 25.40322052 8.10203552 26.10194397 C8.16674934 28.24104956 8.22604715 30.38026421 8.28515625 32.51953125 C8.32841609 33.98113049 8.37203259 35.44271922 8.41601562 36.90429688 C8.52234876 40.46342965 8.62382955 44.02268122 8.72265625 47.58203125 C11.36265625 48.57203125 14.00265625 49.56203125 16.72265625 50.58203125 C16.72265625 53.55203125 16.72265625 56.52203125 16.72265625 59.58203125 C2.86265625 59.58203125 -10.99734375 59.58203125 -25.27734375 59.58203125 C-25.27734375 56.61203125 -25.27734375 53.64203125 -25.27734375 50.58203125 C-24.30796875 50.14890625 -23.33859375 49.71578125 -22.33984375 49.26953125 C-19.0000261 47.88054515 -19.0000261 47.88054515 -18.27734375 44.58203125 C-18.04116106 40.12750665 -18.0921619 35.66714444 -18.08984375 31.20703125 C-18.07147461 29.35851563 -18.07147461 29.35851563 -18.05273438 27.47265625 C-18.05080078 26.28414062 -18.04886719 25.095625 -18.046875 23.87109375 C-18.04276611 22.78521973 -18.03865723 21.6993457 -18.03442383 20.58056641 C-18.30208677 17.2766104 -18.84623781 14.01313719 -21.27734375 11.58203125 C-26.65981185 11.68968061 -29.90280975 13.06264158 -33.81542969 16.56469727 C-36.73310813 20.59087912 -36.07311043 25.24816736 -35.83984375 30.01953125 C-35.82501953 31.03080078 -35.81019531 32.04207031 -35.79492188 33.08398438 C-35.65610062 38.54072739 -35.28582188 43.48091378 -33.27734375 48.58203125 C-30.78093247 50.09995769 -30.78093247 50.09995769 -28.27734375 50.58203125 C-28.27734375 53.55203125 -28.27734375 56.52203125 -28.27734375 59.58203125 C-42.13734375 59.58203125 -55.99734375 59.58203125 -70.27734375 59.58203125 C-70.27734375 56.61203125 -70.27734375 53.64203125 -70.27734375 50.58203125 C-67.63734375 49.59203125 -64.99734375 48.60203125 -62.27734375 47.58203125 C-62.20327858 43.06139735 -62.1487833 38.54111525 -62.11254883 34.02001953 C-62.09744664 32.48154551 -62.07696329 30.94311464 -62.05102539 29.40478516 C-62.01470301 27.19552984 -61.99763256 24.98684277 -61.984375 22.77734375 C-61.96889114 22.08770538 -61.95340729 21.39806702 -61.93745422 20.68753052 C-61.90196492 18.53774539 -61.90196492 18.53774539 -62.27734375 15.58203125 C-65.19499375 13.63693125 -66.9027166 13.12926808 -70.27734375 12.58203125 C-70.27734375 9.28203125 -70.27734375 5.98203125 -70.27734375 2.58203125 C-66.22129048 1.86562951 -62.16448303 1.15368087 -58.10693359 0.44580078 C-56.72748866 0.20450318 -55.34825365 -0.03799772 -53.96923828 -0.28173828 C-51.98395871 -0.63241852 -49.99784667 -0.97837558 -48.01171875 -1.32421875 C-46.81772461 -1.53369141 -45.62373047 -1.74316406 -44.39355469 -1.95898438 C-41.27734375 -2.41796875 -41.27734375 -2.41796875 -37.27734375 -2.41796875 C-36.61734375 -0.10796875 -35.95734375 2.20203125 -35.27734375 4.58203125 C-34.81585938 4.18371094 -34.354375 3.78539062 -33.87890625 3.375 C-24.04836686 -4.60988476 -11.02486451 -7.85549894 0 0 Z " fill="#3F3F3F" transform="translate(408.27734375,1079.41796875)"/>
<path d="M0 0 C4.21980906 4.64178997 4.17766737 9.30711548 4.28125 15.31640625 C4.30886414 16.53480446 4.30886414 16.53480446 4.33703613 17.77781677 C4.41569855 21.25368117 4.48354011 24.72973733 4.55224609 28.20581055 C4.60392894 30.74277444 4.6611866 33.2795701 4.71875 35.81640625 C4.73232544 36.60600235 4.74590088 37.39559845 4.7598877 38.2091217 C4.7651288 42.2356429 4.7651288 42.2356429 6 46 C8.02463255 46.65213292 8.02463255 46.65213292 10 47 C10.33 45.68 10.66 44.36 11 43 C13.31 43 15.62 43 18 43 C17.88840154 47.65669932 17.70506309 51.01718479 14.9375 54.875 C8.39511225 59.60779114 2.01760378 60.9279634 -6 60 C-10.85441639 58.89876665 -14.62447191 57.77762862 -18 54 C-21.39184576 55.10234987 -24.73740928 56.27536811 -28.0625 57.5625 C-35.25456632 60.24428744 -43.51329329 61.66929749 -50.875 58.75 C-54.51814773 56.70983727 -57.11686 54.76628 -59 51 C-59.55674965 45.04706147 -59.54141118 40.02651909 -56 35 C-47.58827388 26.00140926 -33.64855654 20.39191685 -22 17 C-21.34 17 -20.68 17 -20 17 C-20.25554054 15.53890937 -20.53000372 14.08111904 -20.8125 12.625 C-20.96332031 11.81289062 -21.11414062 11.00078125 -21.26953125 10.1640625 C-21.87544942 7.64179359 -21.87544942 7.64179359 -25 6 C-27.40850669 5.60873077 -27.40850669 5.60873077 -30 5.625 C-30.86625 5.59664062 -31.7325 5.56828125 -32.625 5.5390625 C-35.12900648 5.7877634 -35.12900648 5.7877634 -36.72265625 7.80078125 C-38.16295885 10.16057057 -38.16295885 10.16057057 -39.4375 13.5625 C-41.66770186 18.4689441 -41.66770186 18.4689441 -45 20 C-49.59806306 20.5108959 -51.86036211 20.60619037 -55.9375 18.4375 C-58.66845273 15.21001041 -59 13.20705309 -59 9 C-57.23452686 3.48289643 -53.98947569 0.6206405 -49 -2 C-34.13029301 -7.75216595 -13.63520483 -9.46116254 0 0 Z M-27.5 30.8125 C-28.2734375 31.33457031 -29.046875 31.85664062 -29.84375 32.39453125 C-32.6854282 34.510346 -34.62583969 36.05212721 -35.9375 39.375 C-36.22529278 42.15352661 -36.22529278 42.15352661 -34.4375 44.8125 C-32.16845326 47.21155892 -32.16845326 47.21155892 -29.125 47.625 C-25.95665012 46.99133002 -23.57305551 46.21689304 -21.125 44.04296875 C-18.52629633 39.32379507 -19.61935916 33.20914034 -20 28 C-23.56209836 28 -24.60568237 28.82989243 -27.5 30.8125 Z " fill="#3F3F3F" transform="translate(1173,1081)"/>
<path d="M0 0 C4.21980906 4.64178997 4.17766737 9.30711548 4.28125 15.31640625 C4.30886414 16.53480446 4.30886414 16.53480446 4.33703613 17.77781677 C4.41569855 21.25368117 4.48354011 24.72973733 4.55224609 28.20581055 C4.60392894 30.74277444 4.6611866 33.2795701 4.71875 35.81640625 C4.73232544 36.60600235 4.74590088 37.39559845 4.7598877 38.2091217 C4.7651288 42.2356429 4.7651288 42.2356429 6 46 C8.02463255 46.65213292 8.02463255 46.65213292 10 47 C10.33 45.68 10.66 44.36 11 43 C13.31 43 15.62 43 18 43 C17.88840154 47.65669932 17.70506309 51.01718479 14.9375 54.875 C8.39511225 59.60779114 2.01760378 60.9279634 -6 60 C-10.85441639 58.89876665 -14.62447191 57.77762862 -18 54 C-21.39184576 55.10234987 -24.73740928 56.27536811 -28.0625 57.5625 C-35.25456632 60.24428744 -43.51329329 61.66929749 -50.875 58.75 C-54.51814773 56.70983727 -57.11686 54.76628 -59 51 C-59.55674965 45.04706147 -59.54141118 40.02651909 -56 35 C-47.58827388 26.00140926 -33.64855654 20.39191685 -22 17 C-21.34 17 -20.68 17 -20 17 C-20.25554054 15.53890937 -20.53000372 14.08111904 -20.8125 12.625 C-20.96332031 11.81289062 -21.11414063 11.00078125 -21.26953125 10.1640625 C-21.87544942 7.64179359 -21.87544942 7.64179359 -25 6 C-27.40850669 5.60873077 -27.40850669 5.60873077 -30 5.625 C-30.86625 5.59664062 -31.7325 5.56828125 -32.625 5.5390625 C-35.12900648 5.7877634 -35.12900648 5.7877634 -36.72265625 7.80078125 C-38.16295885 10.16057057 -38.16295885 10.16057057 -39.4375 13.5625 C-41.66770186 18.4689441 -41.66770186 18.4689441 -45 20 C-49.59806306 20.5108959 -51.86036211 20.60619037 -55.9375 18.4375 C-58.66845273 15.21001041 -59 13.20705309 -59 9 C-57.23452686 3.48289643 -53.98947569 0.6206405 -49 -2 C-34.13029301 -7.75216595 -13.63520483 -9.46116254 0 0 Z M-27.5 30.8125 C-28.2734375 31.33457031 -29.046875 31.85664062 -29.84375 32.39453125 C-32.6854282 34.510346 -34.62583969 36.05212721 -35.9375 39.375 C-36.22529278 42.15352661 -36.22529278 42.15352661 -34.4375 44.8125 C-32.16845326 47.21155892 -32.16845326 47.21155892 -29.125 47.625 C-25.95665012 46.99133002 -23.57305551 46.21689304 -21.125 44.04296875 C-18.52629633 39.32379507 -19.61935916 33.20914034 -20 28 C-23.56209836 28 -24.60568237 28.82989243 -27.5 30.8125 Z " fill="#3F3F3F" transform="translate(945,1081)"/>
<path d="M0 0 C4.21980906 4.64178997 4.17766737 9.30711548 4.28125 15.31640625 C4.30886414 16.53480446 4.30886414 16.53480446 4.33703613 17.77781677 C4.41569855 21.25368117 4.48354011 24.72973733 4.55224609 28.20581055 C4.60392894 30.74277444 4.6611866 33.2795701 4.71875 35.81640625 C4.73232544 36.60600235 4.74590088 37.39559845 4.7598877 38.2091217 C4.7651288 42.2356429 4.7651288 42.2356429 6 46 C8.02463255 46.65213292 8.02463255 46.65213292 10 47 C10.33 45.68 10.66 44.36 11 43 C13.31 43 15.62 43 18 43 C17.88840154 47.65669932 17.70506309 51.01718479 14.9375 54.875 C8.39511225 59.60779114 2.01760378 60.9279634 -6 60 C-10.85441639 58.89876665 -14.62447191 57.77762862 -18 54 C-21.39184576 55.10234987 -24.73740928 56.27536811 -28.0625 57.5625 C-35.25456632 60.24428744 -43.51329329 61.66929749 -50.875 58.75 C-54.51814773 56.70983727 -57.11686 54.76628 -59 51 C-59.55674965 45.04706147 -59.54141118 40.02651909 -56 35 C-47.58827388 26.00140926 -33.64855654 20.39191685 -22 17 C-21.34 17 -20.68 17 -20 17 C-20.25554054 15.53890937 -20.53000372 14.08111904 -20.8125 12.625 C-20.96332031 11.81289062 -21.11414063 11.00078125 -21.26953125 10.1640625 C-21.87544942 7.64179359 -21.87544942 7.64179359 -25 6 C-27.40850669 5.60873077 -27.40850669 5.60873077 -30 5.625 C-30.86625 5.59664062 -31.7325 5.56828125 -32.625 5.5390625 C-35.12900648 5.7877634 -35.12900648 5.7877634 -36.72265625 7.80078125 C-38.16295885 10.16057057 -38.16295885 10.16057057 -39.4375 13.5625 C-41.66770186 18.4689441 -41.66770186 18.4689441 -45 20 C-49.59806306 20.5108959 -51.86036211 20.60619037 -55.9375 18.4375 C-58.66845273 15.21001041 -59 13.20705309 -59 9 C-57.23452686 3.48289643 -53.98947569 0.6206405 -49 -2 C-34.13029301 -7.75216595 -13.63520483 -9.46116254 0 0 Z M-27.5 30.8125 C-28.2734375 31.33457031 -29.046875 31.85664062 -29.84375 32.39453125 C-32.6854282 34.510346 -34.62583969 36.05212721 -35.9375 39.375 C-36.22529278 42.15352661 -36.22529278 42.15352661 -34.4375 44.8125 C-32.16845326 47.21155892 -32.16845326 47.21155892 -29.125 47.625 C-25.95665012 46.99133002 -23.57305551 46.21689304 -21.125 44.04296875 C-18.52629633 39.32379507 -19.61935916 33.20914034 -20 28 C-23.56209836 28 -24.60568237 28.82989243 -27.5 30.8125 Z " fill="#3F3F3F" transform="translate(621,1081)"/>
<path d="M0 0 C6.89911127 6.16928793 10.59183963 11.75591426 11.30859375 20.96484375 C11.63291021 28.94020086 11.66490924 36.19700736 7 43 C6.525625 43.69351562 6.05125 44.38703125 5.5625 45.1015625 C-0.12622183 52.40391216 -8.50850426 57.17693835 -17.62890625 58.75390625 C-30.03641372 60.04167062 -42.82578063 58.41542217 -52.90625 50.50390625 C-59.38518513 44.56030686 -62.50713797 37.17025351 -63.203125 28.45703125 C-63.3686567 19.11828441 -61.81066723 11.1847903 -55.796875 3.81640625 C-41.05980294 -11.08085137 -16.74202279 -11.8789844 0 0 Z M-35 8 C-39.04978984 17.62620203 -38.4281402 33.2869361 -35 43 C-33.15075507 45.83165629 -32.00525005 47.49737497 -29 49 C-25.44423793 49.39508467 -23.49038786 49.26230049 -20.3125 47.5625 C-14.62368101 41.25867355 -14.5246556 33.04867233 -14.625 24.9375 C-14.61339844 23.99583984 -14.60179687 23.05417969 -14.58984375 22.08398438 C-14.61754755 15.44892463 -15.23878689 9.27254887 -19.6875 4 C-26.18798849 1.18897795 -30.99774522 2.23204458 -35 8 Z " fill="#3F3F3F" transform="translate(319,1083)"/>
<path d="M0 0 C13.2 0 26.4 0 40 0 C40 2.97 40 5.94 40 9 C38.35 9.66 36.7 10.32 35 11 C41.23078184 23.64149706 41.23078184 23.64149706 48 36 C51.18124409 32.22666317 53.10656012 27.93281588 55.1875 23.5 C55.55552734 22.74074219 55.92355469 21.98148438 56.30273438 21.19921875 C56.65013672 20.46316406 56.99753906 19.72710938 57.35546875 18.96875 C57.82956177 17.97004883 57.82956177 17.97004883 58.31323242 16.95117188 C59.22134082 14.71590089 59.22134082 14.71590089 59 11 C56.525 10.01 56.525 10.01 54 9 C54 6.03 54 3.06 54 0 C62.25 0 70.5 0 79 0 C79 2.97 79 5.94 79 9 C76.26953125 11.08984375 76.26953125 11.08984375 73 13 C71.34202755 15.52714292 70.00591856 17.86854515 68.6875 20.5625 C68.08059326 21.75721924 68.08059326 21.75721924 67.46142578 22.97607422 C65.95162106 25.97326353 64.47450883 28.98528424 63 32 C62.33787917 33.34789334 61.6755978 34.69570784 61.01318359 36.04345703 C57.36798924 43.468016 53.74502416 50.90333303 50.1484375 58.3515625 C49.80658417 59.05941895 49.46473083 59.76727539 49.11251831 60.49658203 C47.32561054 64.20844828 45.5615153 67.92961336 43.82592773 71.66577148 C43.47047882 72.42928925 43.11502991 73.19280701 42.74880981 73.97946167 C42.07632311 75.42748391 41.40726591 76.87710613 40.74240112 78.3286438 C37.40189793 85.52282064 33.17716503 94.06964772 26 98 C21.49098119 99.192329 18.07367799 99.35789266 13.625 97.875 C10.67676761 95.76911972 9.39686088 94.33694544 8 91 C7.41341829 86.30734631 8.21304074 83.77841548 11 80 C13.41796875 78.77734375 13.41796875 78.77734375 16.1875 77.9375 C23.79654835 75.40450108 29.51879354 73.48156818 34.28515625 66.78125 C35.23495415 64.41454047 34.7746962 63.41462344 34 61 C33.23030672 59.44987272 32.40791248 57.92542028 31.55078125 56.421875 C31.03878174 55.51920898 30.52678223 54.61654297 29.99926758 53.68652344 C29.44263428 52.7174707 28.88600098 51.74841797 28.3125 50.75 C27.74104248 49.74743164 27.16958496 48.74486328 26.58081055 47.71191406 C16.27402535 25.07009565 16.27402535 25.07009565 0 9 C0 6.03 0 3.06 0 0 Z " fill="#3F3F3F" transform="translate(801,1078)"/>
<path d="M0 0 C6.31504429 5.34551467 9.56556079 10.19974317 11.5625 18.1875 C11.5625 21.4875 11.5625 24.7875 11.5625 28.1875 C-1.6375 28.1875 -14.8375 28.1875 -28.4375 28.1875 C-27.05990034 40.2686746 -27.05990034 40.2686746 -19.75 48.125 C-15.34634091 49.53749442 -11.88788281 49.37586387 -7.4375 48.1875 C-3.95632026 46.25351126 -1.10142637 44.14741819 1.5625 41.1875 C4.5344385 42.31201727 6.89690687 43.41043791 9.5625 45.1875 C8.83501852 49.7948827 6.34124127 51.61767337 2.88671875 54.5078125 C-6.40536827 61.22310228 -17.19249783 62.49341981 -28.34765625 60.7265625 C-37.95794661 58.42874343 -45.85520638 53.42631921 -51.4375 45.1875 C-56.36944476 36.15527175 -56.77420769 25.18221193 -54.25390625 15.3125 C-51.42344587 7.9451773 -44.9883126 1.4520538 -37.98046875 -2.03515625 C-25.8288447 -7.11806946 -11.20103368 -8.06728513 0 0 Z M-26.4375 7.1875 C-28.98177398 10.74948358 -28.76891544 13.50740809 -29.4375 18.1875 C-23.4975 18.1875 -17.5575 18.1875 -11.4375 18.1875 C-12.50241416 10.99320678 -12.50241416 10.99320678 -16.4375 5.1875 C-20.71175231 3.50029514 -22.89718499 4.4126585 -26.4375 7.1875 Z " fill="#3E3E3E" transform="translate(787.4375,1080.8125)"/>
<path d="M0 0 C0.33 17.49 0.66 34.98 1 53 C3.97 53.66 6.94 54.32 10 55 C10 57.97 10 60.94 10 64 C-5.18 64 -20.36 64 -36 64 C-36 61.03 -36 58.06 -36 55 C-35.36191406 54.87882812 -34.72382813 54.75765625 -34.06640625 54.6328125 C-32.82697266 54.38144531 -32.82697266 54.38144531 -31.5625 54.125 C-30.32693359 53.88136719 -30.32693359 53.88136719 -29.06640625 53.6328125 C-28.38449219 53.42398437 -27.70257813 53.21515625 -27 53 C-25.46702703 49.93405406 -25.87868545 46.72888147 -25.90234375 43.3671875 C-25.9037587 42.61535187 -25.90517365 41.86351624 -25.90663147 41.08889771 C-25.91223535 38.6842249 -25.92478843 36.27964473 -25.9375 33.875 C-25.9425145 32.24609509 -25.9470775 30.61718873 -25.95117188 28.98828125 C-25.96220603 24.99215173 -25.97947321 20.99609158 -26 17 C-29.3 16.34 -32.6 15.68 -36 15 C-36 12.03 -36 9.06 -36 6 C-29.12912524 4.13756508 -22.21674409 2.97522951 -15.1875 1.875 C-13.49077148 1.60236328 -13.49077148 1.60236328 -11.75976562 1.32421875 C-3.40125705 0 -3.40125705 0 0 0 Z " fill="#3F3F3F" transform="translate(239,1075)"/>
<path d="M0 0 C3.46126374 3.04171662 4.79868761 5.71666391 5.875 10.1875 C6.09025885 14.34917109 5.69763411 16.97348949 4.0625 20.8125 C0.56743129 24.58990016 -2.58692723 26.72393785 -7.75 27.0625 C-12.88321112 26.97895769 -15.49308099 25.17667351 -19.1875 21.6875 C-21.58142055 17.75463053 -22.25821155 14.40172957 -21.9375 9.8125 C-20.72728813 5.70489854 -18.9250075 2.74191882 -15.8125 -0.1875 C-10.53488389 -2.02319256 -5.19507515 -2.10013676 0 0 Z " fill="#3F3F3F" transform="translate(234.9375,1038.1875)"/>
</svg>
